<?xml version="1.0" encoding="utf-8"?>
<!-- Generator: Adobe Illustrator 20.1.0, SVG Export Plug-In . SVG Version: 6.00 Build 0)  -->
<svg version="1.1" id="Layer_1" xmlns="http://www.w3.org/2000/svg" xmlns:xlink="http://www.w3.org/1999/xlink" x="0px" y="0px"
	 viewBox="0 0 282.3 78.9" style="enable-background:new 0 0 282.3 78.9;" xml:space="preserve">
<style type="text/css">
	.st0{fill:#774929;}
	.st1{fill:#B69076;}
</style>
<g>
	<g>
		<path class="st0" d="M26.4,28.3V32H0v-3.7H26.4z"/>
		<path class="st0" d="M55.5,29.2v15.3h6.4c0.8,0,1.4,0.2,1.8,0.5c0.4,0.3,0.5,0.7,0.5,1.3c0,0.5-0.2,0.9-0.5,1.2
			c-0.4,0.3-1,0.5-1.8,0.5H47.4c-0.8,0-1.4-0.2-1.8-0.5c-0.4-0.3-0.5-0.7-0.5-1.2c0-0.5,0.2-0.9,0.5-1.3c0.4-0.3,0.9-0.5,1.8-0.5
			h4.6V3.4h-4.6c-0.8,0-1.4-0.2-1.8-0.5c-0.4-0.3-0.5-0.7-0.5-1.3s0.2-0.9,0.5-1.3C46,0.2,46.6,0,47.4,0h14.4c0.8,0,1.4,0.2,1.8,0.5
			c0.4,0.3,0.5,0.7,0.5,1.3S64,2.7,63.7,3c-0.4,0.3-1,0.5-1.8,0.5h-6.4v21.2L79.3,3.4h-3.8c-0.8,0-1.4-0.2-1.8-0.5s-0.5-0.7-0.5-1.3
			s0.2-0.9,0.5-1.3s1-0.5,1.8-0.5h10.1c0.8,0,1.4,0.2,1.8,0.5c0.4,0.3,0.5,0.7,0.5,1.3S87.8,2.7,87.4,3c-0.4,0.3-0.9,0.5-1.8,0.5
			h-1.4L65.3,20.4c2.8,1.1,5.2,2.6,7,4.3s3.7,4.2,5.4,7.3c1,1.8,2.8,5.9,5.4,12.5h4.3c0.8,0,1.4,0.2,1.8,0.5
			c0.4,0.3,0.5,0.7,0.5,1.3c0,0.5-0.2,0.9-0.5,1.2c-0.4,0.3-1,0.5-1.8,0.5h-6.6c-3.6-9.9-6.6-16.2-9.1-19.1s-5.5-4.8-9.2-6
			L55.5,29.2z"/>
		<path class="st0" d="M119.5,32H96.9l-4.6,12.6h6.6c0.8,0,1.4,0.2,1.8,0.5s0.5,0.7,0.5,1.3c0,0.5-0.2,0.9-0.5,1.2S99.7,48,98.9,48
			H86c-0.8,0-1.4-0.2-1.8-0.5s-0.5-0.7-0.5-1.2c0-0.5,0.2-0.9,0.5-1.3s0.9-0.5,1.8-0.5h2.7l15.2-41.1H93.7c-0.8,0-1.4-0.2-1.8-0.5
			c-0.4-0.3-0.5-0.7-0.5-1.3s0.2-0.9,0.5-1.3C92.3,0.2,92.9,0,93.7,0H111l16.8,44.5h2.7c0.8,0,1.4,0.2,1.8,0.5s0.5,0.7,0.5,1.3
			c0,0.5-0.2,0.9-0.5,1.2s-0.9,0.5-1.8,0.5h-12.8c-0.8,0-1.4-0.2-1.8-0.5c-0.4-0.3-0.5-0.7-0.5-1.2c0-0.5,0.2-0.9,0.5-1.3
			c0.4-0.3,1-0.5,1.8-0.5h6.6L119.5,32z M118.2,28.5l-9.5-25.1h-1.3l-9.2,25.1H118.2z"/>
		<path class="st0" d="M138.5,26.6v18h6.4c0.8,0,1.4,0.2,1.8,0.5s0.5,0.7,0.5,1.3c0,0.5-0.2,0.9-0.5,1.2s-1,0.5-1.8,0.5h-14.4
			c-0.8,0-1.4-0.2-1.8-0.5s-0.5-0.7-0.5-1.2c0-0.5,0.2-0.9,0.5-1.3s0.9-0.5,1.8-0.5h4.6V3.4h-4.6c-0.8,0-1.4-0.2-1.8-0.5
			s-0.5-0.7-0.5-1.3s0.2-0.9,0.5-1.3s0.9-0.5,1.8-0.5h20.8c4.3,0,7.9,1.4,10.8,4.1s4.4,5.8,4.4,9.2c0,2.5-0.9,4.8-2.7,7
			s-4.9,4-9.1,5.4c2.5,1.7,4.6,3.6,6.3,5.7c1.8,2.1,4.6,6.5,8.4,13.1h2.6c0.8,0,1.4,0.2,1.8,0.5c0.4,0.3,0.5,0.7,0.5,1.3
			c0,0.5-0.2,0.9-0.5,1.2c-0.4,0.3-0.9,0.5-1.8,0.5h-4.6c-4.3-7.6-7.6-12.7-9.9-15.3c-2.3-2.6-5-4.6-8.1-6.1H138.5z M138.5,23.1h9.4
			c3,0,5.7-0.5,8.2-1.6c2.4-1.1,4.2-2.4,5.3-3.9c1.1-1.5,1.7-3,1.7-4.5c0-2.3-1.2-4.5-3.5-6.6c-2.3-2.1-5.1-3.1-8.4-3.1h-12.7V23.1z
			"/>
		<path class="st0" d="M190.1,3.4v41.1h11.8c0.8,0,1.4,0.2,1.8,0.5s0.5,0.7,0.5,1.3c0,0.5-0.2,0.9-0.5,1.2s-0.9,0.5-1.8,0.5h-27.1
			c-0.8,0-1.4-0.2-1.8-0.5s-0.5-0.7-0.5-1.2c0-0.5,0.2-0.9,0.5-1.3s0.9-0.5,1.8-0.5h11.8V3.4h-11.8c-0.8,0-1.4-0.2-1.8-0.5
			s-0.5-0.7-0.5-1.3s0.2-0.9,0.5-1.3S174,0,174.8,0h27.1c0.8,0,1.4,0.2,1.8,0.5s0.5,0.7,0.5,1.3S204,2.7,203.7,3s-0.9,0.5-1.8,0.5
			H190.1z"/>
		<path class="st0" d="M240.9,48h-4.4L211,5v39.5h6.4c0.8,0,1.4,0.2,1.8,0.5s0.5,0.7,0.5,1.3c0,0.5-0.2,0.9-0.5,1.2s-1,0.5-1.8,0.5
			h-12.7c-0.8,0-1.4-0.2-1.8-0.5c-0.4-0.3-0.5-0.7-0.5-1.2c0-0.5,0.2-0.9,0.5-1.3c0.4-0.3,1-0.5,1.8-0.5h2.9V3.4H203
			c-0.8,0-1.4-0.2-1.8-0.5c-0.4-0.3-0.5-0.7-0.5-1.3s0.2-0.9,0.5-1.3c0.4-0.3,0.9-0.5,1.8-0.5h9l25.4,43V3.4H231
			c-0.8,0-1.4-0.2-1.8-0.5s-0.5-0.7-0.5-1.3s0.2-0.9,0.5-1.3S230.2,0,231,0h12.7c0.8,0,1.4,0.2,1.8,0.5s0.5,0.7,0.5,1.3
			s-0.2,0.9-0.5,1.3s-0.9,0.5-1.8,0.5h-2.9V48z"/>
		<path class="st0" d="M282.3,28.3V32h-26.4v-3.7H282.3z"/>
	</g>
	<g>
		<path class="st1" d="M43.1,59h-9.5v5.4h8.2v2.1h-8.2v7.9h-2.3V57h11.8V59z"/>
		<path class="st1" d="M50.1,74.5h-1.9v-15h1.9V74.5z"/>
		<path class="st1" d="M59.4,63.4c1.6,0,2.8,0.5,3.7,1.5c0.9,1,1.4,2.4,1.4,4.2c0,1.8-0.5,3.2-1.4,4.2c-0.9,1-2.2,1.5-3.7,1.5
			c-1.5,0-2.8-0.5-3.7-1.5c-0.9-1-1.4-2.4-1.4-4.2c0-1.8,0.5-3.2,1.4-4.2C56.6,63.9,57.9,63.4,59.4,63.4z M59.4,73.2
			c0.9,0,1.7-0.4,2.2-1.1c0.6-0.7,0.9-1.7,0.9-3.1c0-1.4-0.3-2.4-0.9-3.1c-0.6-0.7-1.3-1.1-2.2-1.1s-1.7,0.4-2.2,1.1
			c-0.6,0.7-0.9,1.7-0.9,3.1c0,1.4,0.3,2.4,0.9,3.1C57.7,72.9,58.5,73.2,59.4,73.2z"/>
		<path class="st1" d="M82.4,63.6l-3.3,10.9h-1.8l-2.4-8l-2.3,8h-1.8l-3.3-10.9h2.1l2,8.3l2.5-8.3h1.8l2.5,8.3l2-8.3H82.4z"/>
		<path class="st1" d="M90.7,74.7c-1.6,0-2.9-0.5-3.9-1.5c-1-1-1.5-2.4-1.5-4.2c0-1.8,0.5-3.2,1.4-4.2c0.9-1,2.2-1.5,3.7-1.5
			c1.6,0,2.8,0.5,3.7,1.5c0.9,1,1.4,2.4,1.4,4.2v0.5h-8.2c0.1,1.3,0.4,2.2,1,2.8s1.4,0.9,2.3,0.9c0.7,0,1.3-0.2,1.8-0.5
			c0.5-0.3,0.8-0.8,0.9-1.5h2c-0.2,1.1-0.7,2-1.5,2.6S91.9,74.7,90.7,74.7z M93.5,68c-0.2-1-0.5-1.8-1.1-2.3c-0.5-0.5-1.2-0.8-2-0.8
			c-0.8,0-1.4,0.3-2,0.8c-0.6,0.5-0.9,1.3-1.1,2.4H93.5z"/>
		<path class="st1" d="M105.5,65.4c-0.3-0.1-0.7-0.1-1.2-0.1c-1,0-1.8,0.5-2.5,1.5v7.7h-1.9V63.6h1.9v1.5c0.8-1.2,1.8-1.8,2.8-1.8
			c0.3,0,0.6,0,0.9,0.1V65.4z"/>
		<path class="st1" d="M131.5,74.5h-2.6l-2-5.3h-7.3l-1.9,5.3h-2.5l6.7-17.5h2.5L131.5,74.5z M126.2,67.3l-3.1-8.1l-2.9,8.1H126.2z"
			/>
		<path class="st1" d="M141,65.4c-0.3-0.1-0.7-0.1-1.2-0.1c-1,0-1.8,0.5-2.5,1.5v7.7h-1.9V63.6h1.9v1.5c0.8-1.2,1.8-1.8,2.8-1.8
			c0.3,0,0.6,0,0.9,0.1V65.4z"/>
		<path class="st1" d="M150.1,65.4c-0.3-0.1-0.7-0.1-1.2-0.1c-1,0-1.8,0.5-2.5,1.5v7.7h-1.9V63.6h1.9v1.5c0.8-1.2,1.8-1.8,2.8-1.8
			c0.3,0,0.6,0,0.9,0.1V65.4z"/>
		<path class="st1" d="M160.5,73.4c-1,0.9-2.3,1.4-3.8,1.4c-1.1,0-2-0.3-2.7-0.9c-0.7-0.6-1-1.3-1-2.3c0-2.5,2.2-3.8,6.6-3.8h0.9
			c0-0.8,0-1.3-0.1-1.7c-0.1-0.4-0.3-0.6-0.7-0.9s-1-0.3-1.8-0.3c-1.7,0-2.6,0.6-2.7,1.8h-1.9c0.1-2.2,1.7-3.4,4.7-3.4
			c1.4,0,2.5,0.3,3.3,0.8c0.8,0.6,1.2,1.6,1.2,3.3v7h-1.9V73.4z M160.5,71.6v-2.4h-1.3c-2.8,0-4.2,0.8-4.2,2.3c0,0.6,0.2,1,0.6,1.3
			s1,0.4,1.7,0.4c0.6,0,1.3-0.1,1.8-0.4C159.7,72.5,160.1,72.1,160.5,71.6z"/>
		<path class="st1" d="M169.3,65c1-1.1,2-1.6,3.3-1.6c2.5,0,3.7,1.3,3.7,4v7.1h-1.9v-7c0-0.9-0.2-1.5-0.5-1.9
			c-0.3-0.4-0.8-0.6-1.6-0.6c-1,0-2,0.6-3,1.7v7.8h-1.9V63.6h1.9V65z"/>
		<path class="st1" d="M190,73.7c0,3.5-1.6,5.3-4.7,5.3c-1.4,0-2.4-0.3-3.2-0.9s-1.2-1.4-1.2-2.4h2c0,1.2,0.8,1.8,2.4,1.8
			c0.9,0,1.6-0.2,2.1-0.7c0.5-0.5,0.7-1.5,0.7-2.9v-0.5c-0.9,1-1.9,1.6-3.1,1.6c-1.4,0-2.5-0.5-3.3-1.5c-0.8-1-1.2-2.4-1.2-4.1
			c0-1.8,0.4-3.2,1.3-4.2c0.9-1,2-1.6,3.3-1.6c1.2,0,2.2,0.4,3,1.1v-0.8h1.9V73.7z M188,71.4v-5.2c-0.8-0.9-1.8-1.3-2.9-1.3
			c-0.8,0-1.5,0.4-2,1.1c-0.5,0.7-0.7,1.8-0.7,3.2c0,1.3,0.2,2.4,0.7,3.1c0.5,0.7,1.1,1,1.9,1C186.2,73.2,187.2,72.6,188,71.4z"/>
		<path class="st1" d="M199.5,74.7c-1.6,0-2.9-0.5-3.9-1.5s-1.5-2.4-1.5-4.2c0-1.8,0.5-3.2,1.4-4.2c0.9-1,2.2-1.5,3.7-1.5
			c1.6,0,2.8,0.5,3.7,1.5c0.9,1,1.4,2.4,1.4,4.2v0.5h-8.2c0.1,1.3,0.4,2.2,1,2.8c0.6,0.6,1.4,0.9,2.3,0.9c0.7,0,1.3-0.2,1.8-0.5
			c0.5-0.3,0.8-0.8,0.9-1.5h2c-0.2,1.1-0.7,2-1.5,2.6S200.8,74.7,199.5,74.7z M202.4,68c-0.2-1-0.5-1.8-1.1-2.3
			c-0.5-0.5-1.2-0.8-2-0.8c-0.8,0-1.4,0.3-2,0.8c-0.6,0.5-0.9,1.3-1.1,2.4H202.4z"/>
		<path class="st1" d="M223.4,74.5h-1.9v-7c0-0.9-0.1-1.5-0.4-1.9c-0.3-0.4-0.7-0.6-1.3-0.6c-0.9,0-1.9,0.6-2.8,1.7v7.8h-1.9v-7
			c0-0.9-0.1-1.5-0.4-1.9c-0.3-0.4-0.7-0.6-1.3-0.6c-0.9,0-1.9,0.6-2.7,1.7v7.8h-1.9V63.6h1.9V65c0.9-1.1,1.9-1.6,3-1.6
			c1.6,0,2.6,0.7,3,2c0.7-0.9,1.3-1.4,1.8-1.6c0.5-0.2,1-0.3,1.5-0.3c2.2,0,3.3,1.3,3.3,4V74.5z"/>
		<path class="st1" d="M232.9,74.7c-1.6,0-2.9-0.5-3.9-1.5c-1-1-1.5-2.4-1.5-4.2c0-1.8,0.5-3.2,1.4-4.2c0.9-1,2.2-1.5,3.7-1.5
			c1.6,0,2.8,0.5,3.7,1.5c0.9,1,1.4,2.4,1.4,4.2v0.5h-8.2c0.1,1.3,0.4,2.2,1,2.8c0.6,0.6,1.4,0.9,2.3,0.9c0.7,0,1.3-0.2,1.8-0.5
			c0.5-0.3,0.8-0.8,0.9-1.5h2c-0.2,1.1-0.7,2-1.5,2.6S234.2,74.7,232.9,74.7z M235.8,68c-0.2-1-0.5-1.8-1.1-2.3
			c-0.5-0.5-1.2-0.8-2-0.8c-0.8,0-1.4,0.3-2,0.8c-0.6,0.5-0.9,1.3-1.1,2.4H235.8z"/>
		<path class="st1" d="M244,65c1-1.1,2-1.6,3.3-1.6c2.5,0,3.7,1.3,3.7,4v7.1H249v-7c0-0.9-0.2-1.5-0.5-1.9c-0.3-0.4-0.8-0.6-1.6-0.6
			c-1,0-2,0.6-3,1.7v7.8h-1.9V63.6h1.9V65z"/>
		<path class="st1" d="M260.1,74.5c-0.4,0.1-0.9,0.1-1.4,0.1c-0.8,0-1.4-0.1-1.7-0.4c-0.4-0.3-0.6-0.6-0.7-1.1s-0.1-1-0.1-1.8v-6.2
			h-1.3v-1.5h1.3v-2.7h1.9v2.7h1.8v1.5h-1.8v6.3c0,0.7,0.1,1.2,0.3,1.4c0.2,0.2,0.4,0.3,0.8,0.3c0.3,0,0.7,0,1-0.1V74.5z"/>
	</g>
</g>
</svg>
